<mxfile host="app.diagrams.net" modified="2024-07-05T11:01:04.035Z" agent="Mozilla/5.0 (Windows NT 10.0; Win64; x64) AppleWebKit/537.36 (KHTML, like Gecko) Chrome/126.0.0.0 Safari/537.36" version="24.4.10" etag="D_jNTCcZgWErsCEhmJvy" type="github">
  <diagram name="PÃ¡gina-1" id="SFgQcUFF7pyh4ZjSaCR_">
    <mxGraphModel>
      <root>
        <mxCell id="0" />
        <mxCell id="1" parent="0" />
      </root>
    </mxGraphModel>
  </diagram>
</mxfile>
